<svg width="100" height="100" xmlns="http://www.w3.org/2000/svg">
    <rect width="100" height="100" fill="black" />
    
    <!-- Stars -->
    <defs>
        <g id="star">
            <path 
                d="M6.123233995736766e-17,-1,0.29389262614623657,-0.4045084971874737,0.9510565162951535,-0.3090169943749474,0.47552825814757677,0.1545084971874737,0.5877852522924731,0.8090169943749475,3.061616997868383e-17,0.5,-0.587785252292473,0.8090169943749475,-0.47552825814757677,0.15450849718747375,-0.9510565162951535,-0.30901699437494773,-0.2938926261462366,-0.40450849718747367Z"
                fill="#ffffff"
            />
        </g>
    </defs>
    <use transform="translate(10,65) scale(4) rotate(129471829471414)" href="#star" />
    <use transform="translate(70,17) scale(2.6) rotate(1213291823)" href="#star" />
    <use transform="translate(15,20) scale(3.6) rotate(12938713913123)" href="#star" />
    <use transform="translate(20,42) scale(1) rotate(52983572873467)" href="#star" />
    <use transform="translate(46,5) scale(1.3) rotate(123142351231252)" href="#star" />

    <!-- Moon -->
    <circle cx="50" cy="50" r="25" fill="#e0e0d8" />
    <path d="
        M-17.677669529663685 17.677669529663685
        A27 27 45 0 1 17.677669529663685 -17.677669529663685
        Z
    " fill="#101020" transform="translate(50, 50)" />
    
    <!-- Spike -->
    <polygon fill="#e12626" transform="translate(50 50) scale(25) rotate(135)"
			 points="1,0 1.3077,-0.26012 0.92388,-0.38268 1.1086,-0.74076 0.70711,-0.70711 0.74076,-1.1086 0.38268,-0.92388 0.26012,-1.3077 0,-1 -0.26012,-1.3077 -0.38268,-0.92388 -0.74076,-1.1086 -0.70711,-0.70711 -1.1086,-0.74076 -0.92388,-0.38268 -1.3077,-0.26012 -1,0" />
</svg>