<svg width="100" height="100" xmlns="http://www.w3.org/2000/svg">
    <rect width="100" height="100" fill="black" />
    <!-- Pfp -->
    <clipPath id="clip">
        <circle cx="50" cy="50" r="25" />
    </clipPath>
    <g clip-path="url(#clip)">
        <g transform="translate(25, 25) scale(0.09765625)">
            <rect width="512" height="512" fill="#404040" />
            <rect width="500" height="500" transform="translate(200,100) rotate(60)" fill="#ffff0040" />
            <polygon points="200,300 -200,0 150,0" fill="#00ff0040" />
            <circle cx="400" cy="400" r="200" fill="#0080ff40" />
            <rect width="200" height="200" transform="translate(400,0) rotate(40)" fill="#ff00ff40" />
        </g>
    </g>
    <!-- Overlay -->
    <circle cx="50" cy="50" r="25" fill="#00ff0060" />
    <!-- Spike -->
    <polygon fill="#e12626" transform="translate(50 50) scale(25) rotate(135)"
			 points="1,0 1.3077,-0.26012 0.92388,-0.38268 1.1086,-0.74076 0.70711,-0.70711 0.74076,-1.1086 0.38268,-0.92388 0.26012,-1.3077 0,-1 -0.26012,-1.3077 -0.38268,-0.92388 -0.74076,-1.1086 -0.70711,-0.70711 -1.1086,-0.74076 -0.92388,-0.38268 -1.3077,-0.26012 -1,0" />
</svg>